<svg width="64" height="64" viewBox="0 0 64 64" fill="none" xmlns="http://www.w3.org/2000/svg">
<rect width="64" height="64" rx="16" fill="#AB9FF2"/>
<path d="M32 16C41.9411 16 50 24.0589 50 34C50 43.9411 41.9411 52 32 52C22.0589 52 14 43.9411 14 34C14 24.0589 22.0589 16 32 16Z" fill="white"/>
<path d="M32 20C39.732 20 46 26.268 46 34C46 41.732 39.732 48 32 48C24.268 48 18 41.732 18 34C18 26.268 24.268 20 32 20Z" fill="#AB9FF2"/>
<path d="M28 30C29.1046 30 30 29.1046 30 28C30 26.8954 29.1046 26 28 26C26.8954 26 26 26.8954 26 28C26 29.1046 26.8954 30 28 30Z" fill="white"/>
<path d="M36 30C37.1046 30 38 29.1046 38 28C38 26.8954 37.1046 26 36 26C34.8954 26 34 26.8954 34 28C34 29.1046 34.8954 30 36 30Z" fill="white"/>
<path d="M26 38C26 40.7614 28.6863 43 32 43C35.3137 43 38 40.7614 38 38H26Z" fill="white"/>
</svg>